<svg width="226" height="167" viewBox="0 0 226 167" fill="none" xmlns="http://www.w3.org/2000/svg">
<g filter="url(#filter0_d_353_4785)">
<rect x="21.3229" y="21.3229" width="182.562" height="124.354" rx="14.5521" fill="#FEB4C7" stroke="#D9D9D9" stroke-width="2.64583"/>
<path fill-rule="evenodd" clip-rule="evenodd" d="M48.7028 101.384H41.1666V67.625H48.7028V101.384ZM67.5176 67.625H60.1448C60.1448 73.8375 57.3665 79.5396 52.5225 83.2701L49.6016 85.519L60.9193 101.385H70.2247L59.8109 86.7858C64.7472 81.7323 67.5176 74.9335 67.5176 67.625ZM79.5379 101.375H72.4209V67.6315H79.5379V101.375ZM101.041 78.0331V79.5263C99.1207 78.1795 96.8028 77.388 94.3029 77.388C87.6864 77.388 82.3227 82.9022 82.3227 89.7044C82.3227 96.5066 87.6864 102.021 94.3029 102.021C96.8028 102.021 99.1207 101.229 101.041 99.8829V101.375H107.839V78.0331H101.041ZM101.021 89.7046C101.021 93.0213 98.2628 95.7102 94.8609 95.7102C91.4593 95.7102 88.7015 93.0213 88.7015 89.7046C88.7015 86.3878 91.4593 83.6996 94.8609 83.6996C98.2628 83.6996 101.021 86.3878 101.021 89.7046ZM172.755 79.5263V78.0331H179.553V101.375H172.755V99.8829C170.835 101.229 168.517 102.021 166.016 102.021C159.4 102.021 154.036 96.5066 154.036 89.7044C154.036 82.9022 159.4 77.388 166.016 77.388C168.517 77.388 170.835 78.1795 172.755 79.5263ZM166.575 95.7102C169.976 95.7102 172.734 93.0213 172.734 89.7046C172.734 86.3878 169.976 83.6996 166.575 83.6996C163.173 83.6996 160.415 86.3878 160.415 89.7046C160.415 93.0213 163.173 95.7102 166.575 95.7102ZM141.957 77.4054C139.242 77.4054 136.672 78.2721 134.954 80.6632V78.0346H128.185V101.375H135.037V89.1087C135.037 85.5592 137.352 83.821 140.14 83.821C143.127 83.821 144.845 85.6558 144.845 89.0603V101.375H151.634V86.5314C151.634 81.0995 147.433 77.4054 141.957 77.4054ZM118.354 78.0333V81.0733C119.717 79.2498 122.256 78.0346 125.016 78.0346V84.8266C125.004 84.8265 124.991 84.8258 124.979 84.8251L124.955 84.824C124.949 84.8237 124.942 84.8236 124.936 84.8236C122.246 84.8236 118.37 86.7999 118.37 90.4766V101.374H111.395V78.0333H118.354ZM182.503 97.4813C182.503 95.059 184.412 93.0957 186.768 93.0957C189.124 93.0957 191.034 95.059 191.034 97.4813C191.034 99.9029 189.124 101.867 186.768 101.867C184.412 101.867 182.503 99.9029 182.503 97.4813Z" fill="#17120F"/>
</g>
<defs>
<filter id="filter0_d_353_4785" x="0" y="0" width="225.208" height="167" filterUnits="userSpaceOnUse" color-interpolation-filters="sRGB">
<feFlood flood-opacity="0" result="BackgroundImageFix"/>
<feColorMatrix in="SourceAlpha" type="matrix" values="0 0 0 0 0 0 0 0 0 0 0 0 0 0 0 0 0 0 127 0" result="hardAlpha"/>
<feOffset/>
<feGaussianBlur stdDeviation="10"/>
<feComposite in2="hardAlpha" operator="out"/>
<feColorMatrix type="matrix" values="0 0 0 0 0 0 0 0 0 0 0 0 0 0 0 0 0 0 0.07 0"/>
<feBlend mode="normal" in2="BackgroundImageFix" result="effect1_dropShadow_353_4785"/>
<feBlend mode="normal" in="SourceGraphic" in2="effect1_dropShadow_353_4785" result="shape"/>
</filter>
</defs>
</svg>
