<svg width="19" height="19" viewBox="0 0 19 19" fill="none" xmlns="http://www.w3.org/2000/svg">
<path d="M0.949972 9.99987L17.1323 9.99987L11.21 17.7849C11.1743 17.8318 11.146 17.8876 11.1267 17.9489C11.1074 18.0102 11.0974 18.076 11.0974 18.1424C11.0974 18.2088 11.1074 18.2745 11.1267 18.3358C11.146 18.3972 11.1743 18.4529 11.21 18.4999C11.2457 18.5468 11.288 18.5841 11.3346 18.6095C11.3812 18.6349 11.4312 18.6479 11.4817 18.6479C11.5321 18.6479 11.5821 18.6349 11.6287 18.6095C11.6753 18.5841 11.7177 18.5468 11.7534 18.4999L18.3179 9.85487C18.3358 9.83144 18.3518 9.80545 18.3654 9.77737C18.3718 9.76544 18.3775 9.7529 18.3825 9.73987L18.4015 9.68987L18.4129 9.63987C18.414 9.62574 18.414 9.6115 18.4129 9.59737C18.4226 9.533 18.4226 9.46674 18.4129 9.40237C18.414 9.38824 18.414 9.374 18.4129 9.35987L18.4015 9.30987L18.3825 9.25987C18.3775 9.24683 18.3718 9.2343 18.3654 9.22237C18.3518 9.19429 18.3358 9.1683 18.3179 9.14487L11.7534 0.499868C11.718 0.452246 11.6757 0.414406 11.6291 0.388573C11.5824 0.36274 11.5323 0.34943 11.4817 0.34943C11.4311 0.34943 11.3809 0.36274 11.3343 0.388573C11.2876 0.414406 11.2454 0.452246 11.21 0.499868C11.1746 0.546305 11.1466 0.601448 11.1275 0.662148C11.1084 0.722847 11.0985 0.78791 11.0985 0.853619C11.0985 0.919327 11.1084 0.984388 11.1275 1.04509C11.1466 1.10579 11.1746 1.16093 11.21 1.20737L17.1323 8.99987L0.949972 8.99987C0.84919 8.99987 0.752535 9.05255 0.681271 9.14631C0.610006 9.24008 0.569971 9.36726 0.569971 9.49987C0.569971 9.63248 0.610006 9.75965 0.681271 9.85342C0.752535 9.94719 0.84919 9.99987 0.949972 9.99987Z" fill="black"/>
</svg>
